<svg width="44" height="44" viewBox="0 0 44 44" fill="none" xmlns="http://www.w3.org/2000/svg">
<g clip-path="url(#clip0_2524_45)">
<path fill-rule="evenodd" clip-rule="evenodd" d="M36.4123 23.1698L6.66134 22.8428C6.10909 22.8367 5.66632 22.3841 5.6724 21.8318C5.67847 21.2796 6.13108 20.8368 6.68333 20.8429L36.5797 21.1715L24.9999 8.81932C24.6222 8.4164 24.6426 7.78357 25.0455 7.40584C25.4485 7.02812 26.0813 7.04855 26.459 7.45147L39.6415 21.5133C40.0192 21.9162 39.9988 22.549 39.5959 22.9268L24.8914 36.7117C24.4884 37.0894 23.8556 37.069 23.4779 36.6661C23.1002 36.2632 23.1206 35.6303 23.5235 35.2526L36.4123 23.1698Z" fill="#111111"/>
</g>
<defs>
<clipPath id="clip0_2524_45">
<rect width="30" height="30" fill="white" transform="translate(0.786621 22) rotate(-45)"/>
</clipPath>
</defs>
</svg>
