<svg width="18" height="18" viewBox="0 0 18 18" fill="none" xmlns="http://www.w3.org/2000/svg">
<path d="M12.7546 4.61181C12.7546 4.37392 12.8491 4.14577 13.0174 3.97756C13.1856 3.80935 13.4137 3.71484 13.6516 3.71484C13.8895 3.71484 14.1176 3.80935 14.2859 3.97756C14.4541 4.14577 14.5486 4.37392 14.5486 4.61181C14.5486 4.8497 14.4541 5.07785 14.2859 5.24607C14.1176 5.41428 13.8895 5.50878 13.6516 5.50878C13.4137 5.50878 13.1856 5.41428 13.0174 5.24607C12.8491 5.07785 12.7546 4.8497 12.7546 4.61181Z" fill="#CEAAD0"/>
<path fill-rule="evenodd" clip-rule="evenodd" d="M9.16661 4.83594C8.03663 4.83594 6.95293 5.28482 6.15391 6.08384C5.35489 6.88286 4.90601 7.96656 4.90601 9.09654C4.90601 10.2265 5.35489 11.3102 6.15391 12.1092C6.95293 12.9083 8.03663 13.3572 9.16661 13.3572C10.2966 13.3572 11.3803 12.9083 12.1793 12.1092C12.9783 11.3102 13.4272 10.2265 13.4272 9.09654C13.4272 7.96656 12.9783 6.88286 12.1793 6.08384C11.3803 5.28482 10.2966 4.83594 9.16661 4.83594ZM6.25146 9.09654C6.25146 8.3234 6.55859 7.58192 7.10529 7.03522C7.65199 6.48852 8.39347 6.18139 9.16661 6.18139C9.93976 6.18139 10.6812 6.48852 11.2279 7.03522C11.7746 7.58192 12.0818 8.3234 12.0818 9.09654C12.0818 9.86969 11.7746 10.6112 11.2279 11.1579C10.6812 11.7046 9.93976 12.0117 9.16661 12.0117C8.39347 12.0117 7.65199 11.7046 7.10529 11.1579C6.55859 10.6112 6.25146 9.86969 6.25146 9.09654Z" fill="#CEAAD0"/>
<path fill-rule="evenodd" clip-rule="evenodd" d="M13.8829 0.873899C10.7483 0.526409 7.58496 0.526409 4.45039 0.873899C2.64568 1.07572 1.18811 2.49741 0.976423 4.31109C0.604539 7.49047 0.604539 10.7024 0.976423 13.8818C1.18811 15.6954 2.64479 17.1171 4.45039 17.3189C7.58498 17.6661 10.7483 17.6661 13.8829 17.3189C15.6876 17.1171 17.1452 15.6954 17.3569 13.8818C17.7288 10.7024 17.7288 7.49047 17.3569 4.31109C17.1452 2.49741 15.6885 1.07572 13.8829 0.873899ZM4.59928 2.21038C7.6349 1.87391 10.6984 1.87391 13.734 2.21038C14.927 2.34493 15.8823 3.28585 16.0213 4.46806C16.3809 7.54315 16.3809 10.6497 16.0213 13.7248C15.9494 14.3034 15.6845 14.8408 15.2695 15.2503C14.8545 15.6598 14.3135 15.9174 13.734 15.9816C10.6984 16.3181 7.6349 16.3181 4.59928 15.9816C4.01979 15.9174 3.47884 15.6598 3.06381 15.2503C2.64878 14.8408 2.38392 14.3034 2.31201 13.7248C1.95237 10.6497 1.95237 7.54315 2.31201 4.46806C2.38392 3.88947 2.64878 3.35203 3.06381 2.94254C3.47884 2.53304 4.01979 2.27452 4.59928 2.21038Z" fill="#CEAAD0"/>
</svg>
